HIERARCHY
ROOT Hips
{
 OFFSET 0.000000 0.000000 0.000000
 CHANNELS 6 Xposition Yposition Zposition Yrotation Xrotation Zrotation
 JOINT Chest
 {
  OFFSET 0.000000 9.585900 0.002600
  CHANNELS 3 Yrotation Xrotation Zrotation
  JOINT Chest2
  {
   OFFSET 0.000000 9.601200 -0.005300
   CHANNELS 3 Yrotation Xrotation Zrotation
   JOINT Chest3
   {
    OFFSET 0.000000 9.561800 0.000000
    CHANNELS 3 Yrotation Xrotation Zrotation
    JOINT Chest4
    {
     OFFSET 0.000000 9.552100 0.000000
     CHANNELS 3 Yrotation Xrotation Zrotation
     JOINT Neck
     {
      OFFSET 0.000000 14.453000 0.000000
      CHANNELS 3 Yrotation Xrotation Zrotation
      JOINT Head
      {
       OFFSET 0.000000 8.936500 -0.011300
       CHANNELS 3 Yrotation Xrotation Zrotation
       End Site
       {
        OFFSET 0.000000 17.073600 -0.006000
       }
      }
     }
     JOINT RightCollar
     {
      OFFSET -2.921100 9.558500 0.000000
      CHANNELS 3 Yrotation Xrotation Zrotation
      JOINT RightShoulder
      {
       OFFSET -13.519700 0.000000 0.000000
       CHANNELS 3 Yrotation Xrotation Zrotation
       JOINT RightElbow
       {
        OFFSET 0.000000 -29.696600 0.000000
        CHANNELS 3 Yrotation Xrotation Zrotation
        JOINT RightWrist
        {
         OFFSET 0.000000 -24.004700 0.000000
         CHANNELS 3 Yrotation Xrotation Zrotation
         End Site
         {
          OFFSET 0.000000 -17.728500 0.000000
         }
        }
       }
      }
     }
     JOINT LeftCollar
     {
      OFFSET 2.921100 9.558500 0.000000
      CHANNELS 3 Yrotation Xrotation Zrotation
      JOINT LeftShoulder
      {
       OFFSET 13.519700 0.000000 0.000000
       CHANNELS 3 Yrotation Xrotation Zrotation
       JOINT LeftElbow
       {
        OFFSET 0.000000 -29.696600 0.000000
        CHANNELS 3 Yrotation Xrotation Zrotation
        JOINT LeftWrist
        {
         OFFSET 0.000000 -24.004700 0.000000
         CHANNELS 3 Yrotation Xrotation Zrotation
         End Site
         {
          OFFSET 0.000000 -17.728500 0.000000
         }
        }
       }
      }
     }
    }
   }
  }
 }
 JOINT RightHip
 {
  OFFSET -7.771700 -0.012900 -0.001300
  CHANNELS 3 Yrotation Xrotation Zrotation
  JOINT RightKnee
  {
   OFFSET 0.000000 -40.869800 0.001200
   CHANNELS 3 Yrotation Xrotation Zrotation
   JOINT RightAnkle
   {
    OFFSET 0.000000 -39.717900 0.002100
    CHANNELS 3 Yrotation Xrotation Zrotation
    JOINT RightToe
    {
     OFFSET 0.000000 -4.965400 11.033500
     CHANNELS 3 Yrotation Xrotation Zrotation
     End Site
     {
      OFFSET 0.000000 -1.423100 5.872300
     }
    }
   }
  }
 }
 JOINT LeftHip
 {
  OFFSET 7.771700 -0.012900 -0.001300
  CHANNELS 3 Yrotation Xrotation Zrotation
  JOINT LeftKnee
  {
   OFFSET 0.000000 -40.869800 0.001200
   CHANNELS 3 Yrotation Xrotation Zrotation
   JOINT LeftAnkle
   {
    OFFSET 0.000000 -39.717900 0.002100
    CHANNELS 3 Yrotation Xrotation Zrotation
    JOINT LeftToe
    {
     OFFSET 0.000000 -4.965400 11.033500
     CHANNELS 3 Yrotation Xrotation Zrotation
     End Site
     {
      OFFSET 0.000000 -1.423100 5.872300
     }
    }
   }
  }
 }
}
MOTION
Frames: 8
Frame Time: 0.008333
-15.731556 57.003618 88.351860 173.716583 -32.965327 0.069890 4.907650 21.557522 5.629162 0.659454 3.280815 0.558048 1.062750 5.294087 0.920924 4.380128 18.808781 3.864233 -2.189084 14.357398 -0.699123 -3.787101 -9.133993 -0.537205 3.870236 1.908281 -1.781470 -2.806724 -37.325503 -6.176473 145.598550 -51.527457 -161.814601 2.580175 -17.080902 -55.695049 -10.772222 -5.803531 -6.463488 -9.492755 -26.494861 -0.891616 17.879796 -11.353170 -37.089493 10.462034 -6.527829 13.271111 15.317193 -39.412521 -4.809157 -4.366826 67.322070 -3.246631 6.921546 5.490677 8.583747 -0.059331 0.219638 -0.012446 -7.049854 -44.902887 6.468845 27.693828 64.301693 29.232600 -16.756694 29.274373 -6.258607 0.599518 -14.163306 -4.235683
-15.734349 56.999684 88.357438 173.721667 -32.965171 0.066826 4.922519 21.556510 5.636383 0.660163 3.280580 0.557923 1.063816 5.295306 0.923268 4.385454 18.807033 3.864458 -2.159716 14.353302 -0.731967 -3.792130 -9.135459 -0.542537 3.854983 1.927396 -1.776300 -2.811945 -37.324542 -6.160549 145.603338 -51.549253 -161.771309 2.580942 -17.058627 -55.660365 -10.770216 -5.792186 -6.468509 -9.509104 -26.502638 -0.884929 17.866888 -11.363891 -37.099985 10.459630 -6.524320 13.277473 15.312266 -39.409151 -4.804119 -4.369172 67.325961 -3.266630 6.920041 5.482306 8.597556 -0.059189 0.219546 -0.012778 -7.075529 -44.924723 6.484278 27.672576 64.306426 29.205580 -16.771649 29.352772 -6.229127 0.569318 -14.179115 -4.267611
-15.738668 56.997130 88.360432 173.735233 -32.979560 0.069432 4.916896 21.571002 5.629956 0.670217 3.282010 0.558094 1.084427 5.295247 0.920840 4.370637 18.802084 3.867227 -2.147593 14.355877 -0.749434 -3.792749 -9.138096 -0.546909 3.838457 1.936704 -1.765842 -2.789171 -37.252399 -6.122404 145.591798 -51.497630 -161.737658 2.581533 -17.041216 -55.635215 -10.768508 -5.778925 -6.470032 -9.523556 -26.509887 -0.878809 17.851787 -11.380391 -37.109834 10.462722 -6.518192 13.284109 15.304430 -39.388578 -4.807899 -4.360242 67.335405 -3.276251 6.915420 5.469153 8.610554 -0.059196 0.218761 -0.012884 -7.086464 -44.923420 6.475932 27.648531 64.302119 29.178229 -16.784255 29.404336 -6.206809 0.558757 -14.178192 -4.294482
-15.741788 56.995025 88.362686 173.732940 -32.997174 0.073953 4.926077 21.588474 5.630468 0.672494 3.283045 0.558847 1.084725 5.295394 0.920649 4.403338 18.808580 3.860155 -2.170503 14.347631 -0.737261 -3.794915 -9.140017 -0.546187 3.804928 1.932211 -1.745666 -2.766162 -37.165578 -6.066931 145.584326 -51.420568 -161.705462 2.586006 -17.028655 -55.619313 -10.791476 -5.777098 -6.458715 -9.504531 -26.509530 -0.888236 17.809028 -11.401498 -37.118374 10.456554 -6.514676 13.291253 15.306199 -39.365984 -4.804403 -4.345715 67.341870 -3.279072 6.920000 5.456601 8.622084 -0.058310 0.219102 -0.011802 -7.090727 -44.917669 6.476850 27.649105 64.299885 29.172932 -16.794467 29.441397 -6.181965 0.542768 -14.168898 -4.317885
-15.734978 56.992440 88.366753 173.731815 -33.006600 0.017636 4.983697 21.594269 5.704596 0.652645 3.280657 0.560007 1.084493 5.295241 0.920326 4.402957 18.808579 3.858403 -2.168861 14.347575 -0.741486 -3.772809 -9.138608 -0.578833 3.808667 1.944394 -1.750000 -2.779010 -37.154114 -6.035366 145.614628 -51.420639 -161.690541 2.615113 -17.032120 -55.634135 -10.786150 -5.771088 -6.465027 -9.508107 -26.505683 -0.886599 17.784795 -11.431164 -37.139749 10.446436 -6.516474 13.299045 15.264124 -39.359986 -4.722156 -4.360124 67.328515 -3.296871 6.908338 5.462534 8.621742 -0.058025 0.217410 -0.011067 -7.159983 -44.917929 6.569198 27.663783 64.310697 29.179984 -16.788488 29.506778 -6.144360 0.522581 -14.210503 -4.349441
-15.733265 56.989923 88.370316 173.732757 -33.012728 -0.009662 5.002718 21.597265 5.734516 0.682011 3.283922 0.551421 1.066841 5.293860 0.928015 4.397700 18.807395 3.862873 -2.160156 14.352433 -0.755267 -3.769596 -9.134872 -0.591976 3.812443 1.951326 -1.752962 -2.768980 -37.120056 -5.998390 145.624692 -51.388196 -161.674615 2.644074 -17.028466 -55.644581 -10.784285 -5.766237 -6.471065 -9.519042 -26.503717 -0.878565 17.777177 -11.439433 -37.144744 10.443592 -6.515323 13.296200 15.255273 -39.352506 -4.687344 -4.374070 67.325009 -3.315228 6.906925 5.458246 8.630335 -0.055956 0.217049 -0.010331 -7.202428 -44.931402 6.624923 27.667735 64.325920 29.175440 -16.795581 29.551599 -6.129111 0.498937 -14.202658 -4.359726
-15.739408 56.988017 88.372359 173.758749 -33.020917 -0.004231 5.014288 21.607172 5.718310 0.662856 3.282555 0.556496 1.087768 5.298129 0.918792 4.386442 18.805846 3.870086 -2.161706 14.354512 -0.759651 -3.765289 -9.117167 -0.633392 3.805476 1.952320 -1.743417 -2.733077 -37.090189 -5.958380 145.570544 -51.335068 -161.631878 2.567835 -16.996767 -55.559474 -10.795254 -5.766452 -6.464416 -9.528108 -26.500570 -0.869756 17.771665 -11.447040 -37.149270 10.445987 -6.511764 13.293135 15.252329 -39.336448 -4.707730 -4.352511 67.339066 -3.311450 6.892432 5.445240 8.640590 -0.060024 0.216574 -0.011650 -7.205222 -44.929569 6.599827 27.677111 64.305849 29.172563 -16.801795 29.574392 -6.109404 0.471500 -14.160564 -4.362722
-15.743554 56.986544 88.374325 173.763184 -33.029101 -0.001175 5.025696 21.616443 5.715479 0.655986 3.281569 0.557885 1.094723 5.299599 0.914566 4.391202 18.806410 3.866018 -2.165172 14.358141 -0.764520 -3.776680 -9.108795 -0.638068 3.796094 1.948421 -1.735521 -2.710476 -37.079268 -5.939516 145.614273 -51.327053 -161.634929 2.565154 -16.984022 -55.540425 -10.807065 -5.765309 -6.456641 -9.523143 -26.496439 -0.865025 17.766501 -11.457322 -37.165642 10.449189 -6.502694 13.298966 15.263380 -39.323131 -4.714911 -4.363686 67.347236 -3.329387 6.884889 5.437948 8.649375 -0.055632 0.212159 -0.008400 -7.199737 -44.928256 6.594484 27.650267 64.303253 29.140642 -16.792259 29.590278 -6.093198 0.457299 -14.134602 -4.366995
